<svg xmlns="http://www.w3.org/2000/svg" viewBox="0 0 400 400" fill="none">
  <!-- Stars -->
  <circle cx="50" cy="60" r="2.5" fill="#E5E7EB" opacity="0.8"/>
  <circle cx="340" cy="80" r="3" fill="#E5E7EB" opacity="0.9"/>
  <circle cx="70" cy="330" r="2" fill="#9CA3AF" opacity="0.7"/>
  <circle cx="330" cy="320" r="2.5" fill="#9CA3AF" opacity="0.7"/>
  <circle cx="200" cy="40" r="2" fill="#6B7280" opacity="0.8"/>
  <path d="M320 180l2 5.2 5.2 2-5.2 2-2 5.2-2-5.2-5.2-2 5.2-2Z" fill="#F4501F" opacity="0.9"/>
  <path d="M60 150l1.6 4.2 4.2 1.6-4.2 1.6-1.6 4.2-1.6-4.2-4.2-1.6 4.2-1.6Z" fill="#E5E7EB" opacity="0.8"/>

  <!-- Planet -->
  <circle cx="200" cy="215" r="78" fill="#1E2532"/>
  <circle cx="200" cy="215" r="78" stroke="#52565E" stroke-width="2" opacity="0.8"/>
  <circle cx="174" cy="196" r="14" fill="#141518" opacity="0.9"/>
  <circle cx="226" cy="240" r="9" fill="#141518" opacity="0.8"/>
  <circle cx="212" cy="182" r="5" fill="#52565E" opacity="0.9"/>
  <path d="M126 240C150 254 250 254 274 240" stroke="#F4501F" stroke-width="3" opacity="0.7" stroke-linecap="round"/>

  <!-- Ring -->
  <ellipse cx="200" cy="215" rx="140" ry="44" stroke="#E8491D" stroke-width="4" transform="rotate(-16 200 215)" opacity="0.9"/>
  <ellipse cx="200" cy="215" rx="152" ry="52" stroke="#52565E" stroke-width="1.5" transform="rotate(-16 200 215)" opacity="0.5"/>

  <!-- Brand rocket riding the ring -->
  <g transform="translate(318 148) rotate(38) scale(1.15) translate(-28 -29)">
    <path d="M28 0C22 12 15 28 14 44L14 50L28 58Z" fill="#F4501F"/>
    <path d="M28 0C34 12 41 28 42 44L42 50L28 58Z" fill="#D93B12"/>
    <path d="M28 32L17 54L28 47L39 54Z" fill="#52565E"/>
    <path d="M28 47L22 58L28 54L34 58Z" fill="#141518"/>
    <path d="M12 36L4 48L4 62L12 54Z" fill="#E8491D"/>
    <path d="M44 36L52 48L52 62L44 54Z" fill="#C13413"/>
  </g>
  <g transform="translate(318 148) rotate(38)">
    <path d="M0 36C-3 46 -1 56 0 64C1 56 3 46 0 36Z" fill="#FBBF24" opacity="0.9"/>
  </g>
</svg>
