<svg xmlns="http://www.w3.org/2000/svg" viewBox="0 0 400 400" fill="none">
  <!-- Stars -->
  <circle cx="60" cy="90" r="2.5" fill="#E5E7EB" opacity="0.8"/>
  <circle cx="140" cy="50" r="2" fill="#9CA3AF" opacity="0.7"/>
  <circle cx="320" cy="250" r="2.5" fill="#E5E7EB" opacity="0.8"/>
  <circle cx="80" cy="260" r="2" fill="#6B7280" opacity="0.7"/>
  <circle cx="360" cy="140" r="2" fill="#9CA3AF" opacity="0.8"/>
  <path d="M96 170l1.8 4.7 4.7 1.8-4.7 1.8-1.8 4.7-1.8-4.7-4.7-1.8 4.7-1.8Z" fill="#F4501F" opacity="0.9"/>
  <path d="M300 60l2 5.2 5.2 2-5.2 2-2 5.2-2-5.2-5.2-2 5.2-2Z" fill="#E5E7EB" opacity="0.9"/>

  <!-- Comet -->
  <circle cx="330" cy="96" r="5" fill="#FBBF24"/>
  <path d="M330 96L378 58" stroke="#FBBF24" stroke-width="3" stroke-linecap="round" opacity="0.7"/>
  <path d="M334 104L374 76" stroke="#F4501F" stroke-width="2" stroke-linecap="round" opacity="0.5"/>

  <!-- Moon -->
  <circle cx="252" cy="272" r="86" fill="#1E2532"/>
  <circle cx="252" cy="272" r="86" stroke="#52565E" stroke-width="2" opacity="0.8"/>
  <circle cx="222" cy="246" r="16" fill="#141518" opacity="0.9"/>
  <circle cx="282" cy="298" r="11" fill="#141518" opacity="0.8"/>
  <circle cx="270" cy="234" r="6" fill="#52565E"/>
  <circle cx="236" cy="304" r="7" fill="#52565E" opacity="0.7"/>

  <!-- Flag on the moon -->
  <path d="M252 200L252 172" stroke="#E5E7EB" stroke-width="3" stroke-linecap="round"/>
  <path d="M252 172L282 180L252 188Z" fill="#F4501F"/>

  <!-- Brand rocket descending toward the moon -->
  <g transform="translate(112 120) rotate(-142) scale(1.5) translate(-28 -29)">
    <path d="M28 0C22 12 15 28 14 44L14 50L28 58Z" fill="#F4501F"/>
    <path d="M28 0C34 12 41 28 42 44L42 50L28 58Z" fill="#D93B12"/>
    <path d="M28 32L17 54L28 47L39 54Z" fill="#52565E"/>
    <path d="M28 47L22 58L28 54L34 58Z" fill="#141518"/>
    <path d="M12 36L4 48L4 62L12 54Z" fill="#E8491D"/>
    <path d="M44 36L52 48L52 62L44 54Z" fill="#C13413"/>
  </g>
  <g transform="translate(112 120) rotate(-142)">
    <path d="M0 46C-5 60 -2 74 0 86C2 74 5 60 0 46Z" fill="#FBBF24" opacity="0.9"/>
  </g>

  <!-- Dotted trajectory -->
  <path d="M136 146C170 178 196 204 220 232" stroke="#52565E" stroke-width="2.5" stroke-dasharray="2 10" stroke-linecap="round" opacity="0.7"/>
</svg>
